<svg width="17" height="16" viewBox="0 0 17 16" fill="none" xmlns="http://www.w3.org/2000/svg">
<g id="bxs:sort-alt">
<path id="Vector" d="M4.95143 7.33356H12.6494C13.2241 7.33356 13.5294 6.65356 13.1474 6.22356L9.29876 1.89356C9.23633 1.8231 9.15966 1.76668 9.07381 1.72805C8.98797 1.68941 8.8949 1.66943 8.80076 1.66943C8.70662 1.66943 8.61355 1.68941 8.5277 1.72805C8.44186 1.76668 8.36519 1.8231 8.30276 1.89356L4.45276 6.22356C4.07076 6.65356 4.37609 7.33356 4.95143 7.33356ZM8.30209 14.1062C8.36452 14.1767 8.44119 14.2331 8.52704 14.2717C8.61288 14.3104 8.70595 14.3304 8.80009 14.3304C8.89423 14.3304 8.9873 14.3104 9.07315 14.2717C9.15899 14.2331 9.23566 14.1767 9.29809 14.1062L13.1468 9.77623C13.5294 9.34689 13.2241 8.66689 12.6488 8.66689H4.95143C4.37676 8.66689 4.07143 9.34689 4.45343 9.77689L8.30209 14.1062Z" fill="#9E9E9E"/>
</g>
</svg>
