<svg width="25" height="24" viewBox="0 0 25 24" fill="none" xmlns="http://www.w3.org/2000/svg">
<g id="Calendar / Calendar">
<path id="Vector" d="M4.5 8H20.5M4.5 8V16.8002C4.5 17.9203 4.5 18.4801 4.71799 18.9079C4.90973 19.2842 5.21547 19.5905 5.5918 19.7822C6.0192 20 6.57899 20 7.69691 20H17.3031C18.421 20 18.98 20 19.4074 19.7822C19.7837 19.5905 20.0905 19.2842 20.2822 18.9079C20.5 18.4805 20.5 17.9215 20.5 16.8036V8M4.5 8V7.2002C4.5 6.08009 4.5 5.51962 4.71799 5.0918C4.90973 4.71547 5.21547 4.40973 5.5918 4.21799C6.01962 4 6.58009 4 7.7002 4H8.5M20.5 8V7.19691C20.5 6.07899 20.5 5.5192 20.2822 5.0918C20.0905 4.71547 19.7837 4.40973 19.4074 4.21799C18.9796 4 18.4203 4 17.3002 4H16.5M16.5 2V4M16.5 4H8.5M8.5 2V4" stroke="#8B8B8B" stroke-width="2" stroke-linecap="round" stroke-linejoin="round"/>
</g>
</svg>
