<svg width="31" height="34" viewBox="0 0 31 34" fill="none" xmlns="http://www.w3.org/2000/svg">
<rect x="0.25" y="0.75" width="30.5" height="32.5" rx="4.75" fill="#E0E0E0"/>
<rect x="0.25" y="0.75" width="30.5" height="32.5" rx="4.75" stroke="#24304F" stroke-width="0.5"/>
<path d="M10.3337 16.9999H20.667M5.16699 23.4002V10.6002C5.16699 9.10671 5.16699 8.35941 5.44856 7.78898C5.69623 7.28722 6.09114 6.87956 6.57723 6.6239C7.12984 6.33325 7.85378 6.33325 9.30058 6.33325H21.7006C23.1474 6.33325 23.8704 6.33325 24.423 6.6239C24.9091 6.87956 25.3047 7.28722 25.5524 7.78898C25.8339 8.35941 25.8339 9.10615 25.8339 10.5996V23.3997C25.8339 24.8931 25.8339 25.6399 25.5524 26.2103C25.3047 26.7121 24.9091 27.1206 24.423 27.3762C23.8709 27.6666 23.1489 27.6666 21.7049 27.6666H9.29633C7.85236 27.6666 7.12929 27.6666 6.57723 27.3762C6.09114 27.1206 5.69623 26.7122 5.44856 26.2104C5.16699 25.64 5.16699 24.8936 5.16699 23.4002Z" stroke="#24304F" stroke-width="2" stroke-linecap="round" stroke-linejoin="round"/>
</svg>
