<svg xmlns="http://www.w3.org/2000/svg" width="103" height="70" fill="none" viewBox="0 0 103 70">
  <path fill="#24304F" fill-rule="evenodd" d="M47.068-7c2.13 0 3.858 1.642 3.858 3.667V.333h27.001v-3.666C77.927-5.358 79.654-7 81.784-7s3.858 1.642 3.858 3.667V.424C95.388 1.344 103 9.16 103 18.667v33C103 61.792 94.365 70 83.713 70H45.14c-10.651 0-19.286-8.208-19.286-18.333L0 37l25.853-18.333c0-9.507 7.611-17.323 17.358-18.243v-3.757C43.21-5.358 44.938-7 47.068-7ZM34.226 15h60.4c-1.588-4.272-5.874-7.333-10.913-7.333H45.14c-5.038 0-9.325 3.06-10.913 7.333Zm61.06 7.333h-61.72v29.334c0 6.075 5.181 11 11.572 11h38.574c6.391 0 11.572-4.925 11.572-11V22.333Zm-54.004 11c0-2.025 1.727-3.666 3.857-3.666h15.43c2.13 0 3.857 1.641 3.857 3.666V48c0 2.025-1.727 3.667-3.857 3.667h-15.43c-2.13 0-3.857-1.642-3.857-3.667V33.333ZM56.712 37h-7.715v7.333h7.715V37Z" clip-rule="evenodd"/>
</svg>
