<svg width="195" height="39" viewBox="0 0 195 39" fill="none" xmlns="http://www.w3.org/2000/svg">
<g id="Group 12">
<g id="PurpleIcon">
<path d="M16.5129 0L34.7174 38.6068L37.3845 18.144L16.5129 0Z" fill="#516188"/>
<path d="M34.7174 38.6068L45.1353 10.3022L37.3845 18.144L34.7174 38.6068Z" fill="#344369"/>
<path d="M45.1353 10.3022L16.5129 0L37.3845 18.144L45.1353 10.3022Z" fill="#24304F"/>
<path d="M0 0L18.2045 38.6068L20.8716 18.144L0 0Z" fill="#516188"/>
<path d="M18.2045 38.6068L28.6224 10.3022L20.8716 18.144L18.2045 38.6068Z" fill="#344369"/>
<path d="M28.6224 10.3022L0 0L20.8716 18.144L28.6224 10.3022Z" fill="#24304F"/>
</g>
<g id="WEBLANCE">
<path d="M50.6815 38.3493L45.1357 19.5596H50.8284L53.3993 31.1197H53.5462L56.5946 19.5596H61.0753L64.1236 31.1564H64.2705L66.8414 19.5596H72.5341L66.9883 38.3493H62.1036L58.9084 27.8535H58.7615L55.5662 38.3493H50.6815Z" fill="#24304F"/>
<path d="M74.1868 38.3493V19.5596H87.7391V23.6699H79.2919V26.8993H87.0413V31.0096H79.2919V34.239H87.7024V38.3493H74.1868Z" fill="#24304F"/>
<path d="M90.271 38.3493V19.5596H98.4244C99.8567 19.5596 101.06 19.7523 102.033 20.1376C103.012 20.523 103.75 21.0673 104.246 21.7707C104.748 22.4741 104.999 23.3029 104.999 24.257C104.999 24.9482 104.845 25.5782 104.539 26.147C104.239 26.7158 103.817 27.1929 103.272 27.5782C102.728 27.9575 102.091 28.2205 101.363 28.3673V28.5508C102.171 28.5813 102.905 28.7862 103.566 29.1655C104.227 29.5386 104.754 30.0554 105.145 30.716C105.537 31.3704 105.733 32.1411 105.733 33.028C105.733 34.0555 105.464 34.9699 104.925 35.7712C104.393 36.5724 103.633 37.2024 102.648 37.6612C101.662 38.1199 100.487 38.3493 99.1222 38.3493H90.271ZM95.376 34.2757H97.7633C98.6203 34.2757 99.263 34.1167 99.6915 33.7986C100.12 33.4745 100.334 32.9974 100.334 32.3674C100.334 31.927 100.233 31.5539 100.031 31.2481C99.8292 30.9423 99.5415 30.7099 99.1681 30.5508C98.8008 30.3918 98.357 30.3123 97.8367 30.3123H95.376V34.2757ZM95.376 27.1562H97.4695C97.9163 27.1562 98.3111 27.0859 98.6539 26.9452C98.9967 26.8045 99.263 26.6027 99.4527 26.3397C99.6486 26.0706 99.7466 25.7433 99.7466 25.358C99.7466 24.7769 99.5384 24.3335 99.1222 24.0277C98.706 23.7157 98.1795 23.5598 97.5429 23.5598H95.376V27.1562Z" fill="#24304F"/>
<path d="M107.542 38.3493V19.5596H112.647V34.239H120.249V38.3493H107.542Z" fill="#24304F"/>
<path d="M127.198 38.3493H121.689L127.896 19.5596H134.874L141.081 38.3493H135.571L131.458 24.7341H131.311L127.198 38.3493ZM126.169 30.9362H136.526V34.7528H126.169V30.9362Z" fill="#24304F"/>
<path d="M159.162 19.5596V38.3493H154.901L148.107 28.4774H147.997V38.3493H142.892V19.5596H147.225L153.91 29.3948H154.057V19.5596H159.162Z" fill="#24304F"/>
<path d="M179.132 26.6057H173.954C173.917 26.1776 173.819 25.7892 173.66 25.4406C173.507 25.0919 173.292 24.7922 173.017 24.5414C172.748 24.2846 172.42 24.0888 172.035 23.9543C171.649 23.8136 171.211 23.7433 170.722 23.7433C169.865 23.7433 169.139 23.9512 168.545 24.3671C167.958 24.783 167.511 25.3794 167.205 26.1562C166.905 26.933 166.755 27.8657 166.755 28.9544C166.755 30.1043 166.908 31.0677 167.214 31.8444C167.526 32.6151 167.976 33.1962 168.564 33.5876C169.151 33.973 169.858 34.1656 170.685 34.1656C171.156 34.1656 171.579 34.1075 171.952 33.9913C172.325 33.869 172.65 33.6947 172.925 33.4684C173.201 33.242 173.424 32.9699 173.595 32.6518C173.773 32.3276 173.892 31.9637 173.954 31.56L179.132 31.5967C179.071 32.3919 178.847 33.2023 178.462 34.028C178.076 34.8476 177.528 35.606 176.818 36.3033C176.114 36.9945 175.242 37.5511 174.201 37.9731C173.161 38.3951 171.952 38.6061 170.575 38.6061C168.848 38.6061 167.3 38.2361 165.929 37.496C164.564 36.7559 163.483 35.6672 162.688 34.2299C161.898 32.7925 161.503 31.034 161.503 28.9544C161.503 26.8626 161.907 25.1011 162.715 23.6699C163.523 22.2325 164.613 21.1468 165.984 20.4129C167.355 19.6728 168.885 19.3027 170.575 19.3027C171.762 19.3027 172.855 19.4648 173.853 19.789C174.85 20.1132 175.726 20.5872 176.479 21.2111C177.231 21.8288 177.837 22.5903 178.297 23.4955C178.756 24.4008 179.034 25.4375 179.132 26.6057Z" fill="#24304F"/>
<path d="M181.448 38.3493V19.5596H195V23.6699H186.553V26.8993H194.303V31.0096H186.553V34.239H194.964V38.3493H181.448Z" fill="#24304F"/>
</g>
</g>
</svg>
